<svg width="96" height="96" xmlns="http://www.w3.org/2000/svg" xmlns:xlink="http://www.w3.org/1999/xlink" xml:space="preserve" overflow="hidden"><g transform="translate(-848 -184)"><path d="M877 210C878.7 210 880 208.7 880 207L880 201C880 199.3 878.7 198 877 198 875.3 198 874 199.3 874 201L874 207C874 208.7 875.3 210 877 210Z" stroke="#7C2D3C" fill="#7C2D3C"/><path d="M868 252 884 252 884 260 868 260 868 252ZM868 240 884 240 884 248 868 248 868 240ZM868 228 884 228 884 236 868 236 868 228ZM904 228 904 236 888 236 888 228 904 228ZM924 228 924 236 908 236 908 228 924 228ZM924 248 908 248 908 240 924 240 924 248ZM924 260 908 260 908 252 924 252 924 260ZM888 248 888 240 904 240 904 248 888 248ZM888 260 888 252 904 252 904 260 888 260ZM862 266 930 266 930 222 862 222 862 266Z" stroke="#7C2D3C" fill="#7C2D3C"/><path d="M915 210C916.7 210 918 208.7 918 207L918 201C918 199.3 916.7 198 915 198 913.3 198 912 199.3 912 201L912 207C912 208.7 913.3 210 915 210Z" stroke="#7C2D3C" fill="#7C2D3C"/><path d="M922 204 922 207C922 210.9 918.9 214 915 214 911.1 214 908 210.9 908 207L908 204 884 204 884 207C884 210.9 880.9 214 877 214 873.1 214 870 210.9 870 207L870 204 862 204 862 218 930 218 930 204 922 204Z" stroke="#7C2D3C" fill="#7C2D3C"/></g></svg>