<svg width="96" height="96" xmlns="http://www.w3.org/2000/svg" xmlns:xlink="http://www.w3.org/1999/xlink" xml:space="preserve" overflow="hidden"><g transform="translate(-332 -397)"><path d="M382 417C368.2 417 356.8 426.9 354.5 440L352 440C350.9 440 350 440.9 350 442L350 446C350 447.1 350.9 448 352 448L354.2 448C355.7 462.1 367.5 473 382 473 397.5 473 410 460.5 410 445 410 429.5 397.5 417 382 417ZM382 467C369.8 467 360 457.2 360 445 360 432.8 369.8 423 382 423 394.2 423 404 432.8 404 445 404 457.2 394.2 467 382 467Z" stroke="#7C2D3C" fill="#7C2D3C"/><path d="M401.4 419.5 398.6 404.3C398.3 402.4 396.6 401 394.7 401L369.3 401C367.4 401 365.7 402.4 365.4 404.3L362.6 419.6C374.1 410.8 389.9 410.8 401.4 419.5Z" stroke="#7C2D3C" fill="#7C2D3C"/><path d="M362.6 470.5 365.4 485.8C365.7 487.7 367.4 489.1 369.3 489.1L394.6 489.1C396.5 489.1 398.2 487.7 398.5 485.8L401.3 470.5C389.9 479.2 374.1 479.2 362.6 470.5Z" stroke="#7C2D3C" fill="#7C2D3C"/><path d="M384 429 380 429 380 445C380 445.5 380.2 446 380.6 446.4L391.6 457.4 394.4 454.6 384 444.2 384 429Z" stroke="#7C2D3C" fill="#7C2D3C"/></g></svg>